PathFileType	4	(X/Y/Z)	C:\Users\Basilio\Documents\Thesis Gigler\squatting_fais\c3dfiles\041\SLS_pre_back2\markers_experimental.trc
DataRate	CameraRate	NumFrames	NumMarkers	Units	OrigDataRate	OrigDataStartFrame	OrigNumFrames
200.000000	200.000000	4	63	mm	200.000000	0	1837
Frame#	Time	FHD			LBHD			RBHD			C7			T10			CLAV			LSHO			LUUPA			LMUPA			LDUPA			LLEP			LMEP			LRAD			LUL			LRFIN			RSHO			RUPA1			RMUPA			RDUPA			RLEP			RMEP			RRAD			RUL			RUFIN			LASI			RASI			USACR			LSACR			RSACR			LTHI1			LTHI2			LTHI3			LTHI4			LLFC			LMFC			LTIB1			LTIB2			LTIB3			LTIB4			LLMAL			LMMAL			LHEE			LMT1			LMT2			LMT5			RTHI			RTHI2			RTHI3			RTHI4			RLFC			RMFC			RTIB1			RTIB2			RTIB3			RTIB4			RLMAL			RMMAL			RHEE			RMT1			RMT2			RMT5			*61			*62			
		X1	Y1	Z1	X2	Y2	Z2	X3	Y3	Z3	X4	Y4	Z4	X5	Y5	Z5	X6	Y6	Z6	X7	Y7	Z7	X8	Y8	Z8	X9	Y9	Z9	X10	Y10	Z10	X11	Y11	Z11	X12	Y12	Z12	X13	Y13	Z13	X14	Y14	Z14	X15	Y15	Z15	X16	Y16	Z16	X17	Y17	Z17	X18	Y18	Z18	X19	Y19	Z19	X20	Y20	Z20	X21	Y21	Z21	X22	Y22	Z22	X23	Y23	Z23	X24	Y24	Z24	X25	Y25	Z25	X26	Y26	Z26	X27	Y27	Z27	X28	Y28	Z28	X29	Y29	Z29	X30	Y30	Z30	X31	Y31	Z31	X32	Y32	Z32	X33	Y33	Z33	X34	Y34	Z34	X35	Y35	Z35	X36	Y36	Z36	X37	Y37	Z37	X38	Y38	Z38	X39	Y39	Z39	X40	Y40	Z40	X41	Y41	Z41	X42	Y42	Z42	X43	Y43	Z43	X44	Y44	Z44	X45	Y45	Z45	X46	Y46	Z46	X47	Y47	Z47	X48	Y48	Z48	X49	Y49	Z49	X50	Y50	Z50	X51	Y51	Z51	X52	Y52	Z52	X53	Y53	Z53	X54	Y54	Z54	X55	Y55	Z55	X56	Y56	Z56	X57	Y57	Z57	X58	Y58	Z58	X59	Y59	Z59	X60	Y60	Z60	X61	Y61	Z61	X62	Y62	Z62	X63	Y63	Z63	

1	0	-219.3959655761719	1771.230224609375	-1094.861328125	-395.8435668945314	1695.877685546875	-1163.189819335938	-369.6642761230469	1700.128540039063	-1011.975219726563	-426.5370178222657	1551.982666015625	-1104.186157226563	-448.8662414550782	1234.637329101563	-1084.68310546875	-268.4981079101563	1488.751831054688	-1104.275634765625	-352.3612060546876	1536.700927734375	-1276.335571289063	-397.6322326660157	1357.152587890625	-1374.3056640625	-360.5511474609376	1324.656005859375	-1375.813232421875	-408.447967529297	1292.694946289063	-1398.183837890625	-413.9670410156251	1243.943969726563	-1409.213745117188	-413.9000854492189	1198.673095703125	-1333.430419921875	-245.2768249511719	1021.21533203125	-1438.136352539063	-313.7687683105469	1002.790771484375	-1463.625732421875	-211.2754669189454	966.3800048828127	-1482.999755859375	-336.2298583984376	1542.010375976563	-933.7261962890627	-415.689178466797	1345.611694335938	-833.520202636719	-368.6152343750001	1328.522094726563	-831.5188598632815	-398.3341064453126	1279.78515625	-815.112731933594	-396.5689392089845	1234.81982421875	-805.8736572265627	-418.8729553222657	1207.108520507813	-890.6324462890627	-266.0058288574219	1003.667724609375	-839.6103515625002	-328.1266784667969	986.599792480469	-798.1428833007815	-226.0667877197266	940.878845214844	-814.6972656250002	-251.1604156494141	1054.614013671875	-1173.414428710938	-282.8229064941407	1052.157348632813	-947.3384399414065	-446.7476196289064	1121.985107421875	-1079.770141601563	-457.1867675781251	1095.640014648438	-1107.418701171875	-467.4744873046876	1095.845336914063	-1054.148193359375	-364.5925903320313	849.8049316406252	-1240.380493164063	-335.8340148925782	771.9093017578127	-1224.988037109375	-289.3156433105469	773.3450317382815	-1212.141845703125	-366.9792480468751	721.0294189453126	-1219.382446289063	-368.2110900878907	538.1925048828126	-1191.174438476563	-376.5187683105469	528.1287231445314	-1069.99267578125	-332.3325500488282	354.0361022949219	-1114.855712890625	-371.6645812988282	301.1808776855469	-1177.71826171875	-335.8083190917969	303.5763549804688	-1147.871948242188	-333.8996276855469	228.8871154785157	-1108.396240234375	-379.8482971191407	126.5618209838867	-1138.669799804688	-348.0228881835938	139.9388122558594	-1056.947509765625	-444.4632263183595	111.4171142578125	-1097.271362304688	-241.369369506836	65.43309783935548	-1052.106079101563	-229.9451141357422	56.56965255737306	-1095.2646484375	-272.2102355957032	39.69836425781251	-1153.767578125	-374.5770874023438	785.245300292969	-869.849548339844	-329.9830017089844	737.0864257812501	-860.0262451171877	-297.5692749023438	742.7962036132814	-862.5654296875002	-345.4170837402344	653.8600463867189	-870.6351318359377	-344.8318176269532	546.9730834960939	-865.7669067382815	-315.2232055664063	510.0416870117189	-973.3546142578127	-413.7738342285157	396.1003723144532	-862.1805419921877	-527.6339721679689	387.5859375000001	-872.299011230469	-493.1881713867189	359.4547119140626	-859.8500976562502	-500.149139404297	302.9050598144532	-880.3807373046877	-617.1428833007814	240.2918853759766	-878.0557250976565	-568.9750976562501	238.7166748046876	-947.773620605469	-681.4335327148439	224.6995697021485	-935.2215576171877	-487.3681030273439	131.4791717529297	-916.6263427734377	-491.5878906250001	133.608871459961	-864.9613037109377	-546.0903930664064	132.6083374023438	-824.5867309570315	-4216.574707031251	853.0454101562502	-3944.862548828126	nan	nan	nan	
2	0.005	-219.1665496826172	1771.166137695313	-1094.847412109375	-395.707244873047	1695.860107421875	-1163.218383789063	-369.5736999511719	1699.994018554688	-1012.010620117188	-426.4096679687501	1551.942626953125	-1104.296997070313	-448.6871948242189	1234.59814453125	-1084.7783203125	-268.6039733886719	1488.575927734375	-1103.851318359375	-352.2075500488282	1536.682250976563	-1276.421142578125	-397.5507202148439	1357.083862304688	-1374.338745117188	-360.4440307617188	1324.598754882813	-1375.876098632813	-408.3694763183595	1292.6474609375	-1398.225341796875	-413.860076904297	1243.914672851563	-1409.265014648438	-413.8046264648439	1198.644653320313	-1333.463989257813	-245.2613983154297	1021.06201171875	-1438.0654296875	-313.7293090820313	1002.724670410156	-1463.593994140625	-211.2574310302735	966.246032714844	-1482.921020507813	-336.1276550292969	1541.95263671875	-933.776306152344	-415.6603393554689	1345.574462890625	-833.6104736328127	-368.3364257812501	1328.620971679688	-831.4730224609377	-398.2940368652345	1279.731567382813	-815.2556762695315	-396.5425720214845	1234.720947265625	-806.000671386719	-418.8188781738282	1207.045288085938	-890.7889404296877	-266.0599060058594	1003.608764648438	-839.735290527344	-328.2008361816407	986.5252685546877	-798.2971801757815	-226.1473846435547	940.7742309570315	-814.8067626953127	-250.9215240478516	1054.606201171875	-1173.575073242188	-282.7782897949219	1052.117553710938	-947.4006958007815	-446.5910949707032	1121.957153320313	-1079.887939453125	-457.0710449218751	1095.593505859375	-1107.535766601563	-467.3452758789064	1095.81591796875	-1054.266845703125	-364.3723449707032	849.7785644531252	-1240.45703125	-335.6493835449219	771.9216918945315	-1225.039794921875	-289.1671752929688	773.3154296875002	-1212.20556640625	-366.7977600097657	721.0336303710939	-1219.507202148438	-368.0353393554688	538.1884155273439	-1191.212890625	-376.4126281738282	528.1207885742189	-1070.10595703125	-332.2902832031251	353.9902648925782	-1114.865478515625	-371.5527648925782	301.1939086914063	-1177.763305664063	-335.7400817871094	303.5693359375001	-1147.90576171875	-333.8637390136719	228.8630981445313	-1108.365966796875	-379.8615417480469	126.5612564086914	-1138.674438476563	-348.0580444335938	139.9656677246094	-1056.939819335938	-444.429901123047	111.4266357421875	-1097.259887695313	-241.3539123535157	65.4183807373047	-1052.124633789063	-229.9200744628907	56.54865646362306	-1095.20654296875	-272.1706848144532	39.69789123535157	-1153.789184570313	-374.3918457031251	785.1118774414065	-869.9980468750002	-329.4530944824219	737.0062866210939	-860.2891235351565	-297.3613891601563	742.7682495117189	-862.6326293945315	-345.0318298339844	653.8717651367189	-870.762878417969	-344.6136169433594	546.9455566406251	-865.9041137695315	-314.9482421875001	510.0379333496095	-973.5988769531252	-413.5860290527345	396.1167907714845	-862.2263793945315	-527.3507690429689	387.7151184082032	-872.4810180664065	-492.8319702148439	359.5385437011719	-860.0333251953127	-499.8421325683595	302.9831542968751	-880.3369140625002	-616.8870239257814	240.4151000976563	-878.1199951171877	-567.9309082031251	238.3877410888672	-947.5193481445315	-681.2264404296876	224.8939666748047	-935.2940673828127	-487.3102416992189	131.4187164306641	-916.6421508789065	-491.549285888672	133.5922393798828	-864.988952636719	-546.0445556640626	132.6514129638672	-824.5960693359377	-4216.574707031251	853.0454101562502	-3944.862548828126	nan	nan	nan	
3	0.01	-218.9593658447266	1771.175170898438	-1094.900756835938	-395.4964599609376	1695.870727539063	-1163.293701171875	-369.5335388183594	1699.965698242188	-1012.015686035156	-426.2580566406251	1551.916137695313	-1104.374267578125	-448.5765686035157	1234.602294921875	-1084.906005859375	-268.4251403808594	1488.610717773438	-1103.926147460938	-352.0212402343751	1536.637329101563	-1276.475463867188	-397.3542785644532	1357.030639648438	-1374.4287109375	-360.2913818359376	1324.527465820313	-1375.917114257813	-408.1865234375001	1292.595947265625	-1398.27685546875	-413.720916748047	1243.8603515625	-1409.314453125	-413.7278137207032	1198.632690429688	-1333.475952148438	-245.2156829833985	1020.974670410156	-1437.98193359375	-313.6571044921876	1002.588989257813	-1463.598999023438	-211.1839752197266	966.0725708007815	-1482.805541992188	-335.9579467773438	1541.938354492188	-933.876403808594	-415.6097412109376	1345.515991210938	-833.696716308594	-368.2467956542969	1328.549682617188	-831.6003417968752	-398.2199707031251	1279.644653320313	-815.392761230469	-396.5781860351564	1234.65576171875	-806.1231079101565	-418.7502746582032	1206.980590820313	-890.8880615234377	-266.0907287597657	1003.529663085938	-839.8840332031252	-328.3039245605469	986.4549560546877	-798.475524902344	-226.2785034179688	940.6257934570315	-814.9146118164065	-250.7759552001954	1054.59521484375	-1173.631469726563	-282.7517700195313	1052.0830078125	-947.4827880859377	-446.4842224121095	1121.910888671875	-1079.980590820313	-456.9079589843751	1095.53466796875	-1107.67578125	-467.2396850585939	1095.7900390625	-1054.415283203125	-364.2625427246094	849.7805786132815	-1240.566650390625	-335.4654846191407	771.9090576171877	-1225.169799804688	-289.0100402832032	773.314147949219	-1212.232788085938	-366.6154785156251	720.9932861328126	-1219.577514648438	-367.8578491210938	538.1696166992189	-1191.30908203125	-376.2845458984376	528.1422119140626	-1070.164916992188	-332.2188720703126	353.9840698242188	-1114.868041992188	-371.4979553222657	301.1461791992188	-1177.753784179688	-335.5675354003907	303.6097106933594	-1147.945556640625	-333.8444824218751	228.8682250976563	-1108.366455078125	-379.8615112304688	126.5595016479492	-1138.657348632813	-348.0298156738282	139.9482727050782	-1056.945190429688	-444.9386596679689	111.9681472778321	-1097.23779296875	-241.3869781494141	65.39559936523439	-1052.087158203125	-229.9494781494141	56.54128265380861	-1095.287109375	-272.1607055664063	39.68742370605469	-1153.784912109375	-374.1641845703126	785.0847167968752	-870.101013183594	-329.0683593750001	736.9437255859376	-860.5415649414065	-297.0380249023438	742.7750854492189	-862.807556152344	-344.5248413085938	653.8410034179689	-870.9339599609377	-344.2406616210938	546.8801269531251	-866.116394042969	-314.6128845214844	510.0452575683595	-973.8701171875002	-413.3997802734376	396.2058715820314	-862.3114013671877	-527.0843505859376	387.8230285644532	-872.5349731445315	-492.6096801757814	359.6466674804688	-860.078063964844	-499.6304321289064	303.1088562011719	-880.4324951171877	-616.7493286132814	240.6537017822266	-878.191345214844	-568.6421508789064	238.8829193115235	-947.8939208984377	-680.9811401367189	225.0626220703126	-935.3790283203127	-487.2477416992189	131.4287719726563	-916.644226074219	-491.4338684082032	133.6189880371094	-865.0673828125002	-546.0095825195314	132.7145538330078	-824.578063964844	-4216.569335937501	853.1027832031252	-3944.870117187501	nan	nan	nan	
4	0.015	-218.8513946533204	1771.140380859375	-1094.843139648438	-395.3293457031251	1695.862060546875	-1163.325439453125	-369.4490051269532	1699.917236328125	-1012.030090332031	-426.0538330078126	1551.872192382813	-1104.453857421875	-448.4128417968751	1234.59423828125	-1085.004150390625	-267.7686767578126	1488.824584960938	-1104.621215820313	-351.8977966308594	1536.63720703125	-1276.559448242188	-397.167938232422	1356.990844726563	-1374.506591796875	-359.7779846191407	1324.105834960938	-1375.962280273438	-408.0835266113282	1292.538940429688	-1398.319213867188	-413.6047363281251	1243.77001953125	-1409.346435546875	-413.6250305175782	1198.586181640625	-1333.508666992188	-245.2981719970704	1020.724182128906	-1437.88330078125	-313.7045288085938	1002.464477539063	-1463.51220703125	-211.2493286132813	965.8066406250002	-1482.696655273438	-335.8410949707032	1541.873413085938	-933.9085693359377	-415.6072387695314	1345.476196289063	-833.8140869140627	-368.2505493164063	1328.492065429688	-831.688903808594	-398.2137756347657	1279.552124023438	-815.5383300781252	-396.5725097656251	1234.629028320313	-806.2410278320315	-418.7003784179689	1206.932983398438	-891.039245605469	-266.1779174804688	1003.447448730469	-840.0321044921877	-328.3914489746094	986.381530761719	-798.6404418945315	-226.1009674072266	940.2048950195315	-815.208435058594	-250.5391845703126	1054.634643554688	-1173.786254882813	-282.6086730957032	1051.982788085938	-947.5686035156252	-446.374969482422	1121.909057617188	-1080.081909179688	-456.7744750976564	1095.536743164063	-1107.802124023438	-467.1088867187501	1095.755615234375	-1054.528930664063	-364.1405944824219	849.7905273437502	-1240.60888671875	-335.3132019042969	771.8869628906252	-1225.206665039063	-288.8694763183594	773.3171997070315	-1212.272094726563	-366.4605712890626	720.9900512695314	-1219.708740234375	-367.7061462402344	538.1682739257814	-1191.37451171875	-376.1660766601563	528.1670532226564	-1070.297729492188	-332.0452575683594	353.9136352539063	-1114.870727539063	-371.3895263671876	301.1365356445313	-1177.82373046875	-335.4837951660157	303.5637817382813	-1147.926513671875	-333.7884521484376	228.8544464111329	-1108.333251953125	-379.8248291015626	126.5371704101563	-1138.660522460938	-348.0228881835938	139.9388580322266	-1056.947509765625	-444.928680419922	111.9413833618164	-1097.282470703125	-241.3878479003907	65.39365386962892	-1052.0869140625	-229.939437866211	56.57155227661134	-1095.297119140625	-272.2109985351563	39.69640350341798	-1153.76611328125	-373.8840026855469	785.0642089843752	-870.1940917968752	-328.8474731445313	736.8972778320314	-860.6672973632815	-296.6571044921876	742.7471923828126	-862.9711914062502	-344.4964599609376	653.6557617187501	-871.2271728515627	-343.9005126953126	546.8789672851564	-866.3813476562502	-314.3588562011719	510.0016479492189	-974.0797119140627	-413.2556152343751	396.1970520019532	-862.4074707031252	-526.7383422851564	387.9042053222657	-872.641052246094	-492.2617797851564	359.6530456542969	-860.2544555664065	-499.4751892089845	303.0759887695313	-880.8156738281252	-616.5390625000001	240.7735443115235	-878.2775878906252	-568.4090576171876	238.974594116211	-948.0041503906252	-680.7692871093751	225.3116912841797	-935.4421997070315	-487.1973571777345	131.4395751953125	-916.6794433593752	-491.315887451172	133.6003875732422	-865.079284667969	-545.9498291015626	132.783920288086	-824.6290283203127	-4216.569335937501	853.1027832031252	-3944.870117187501	nan	nan	nan	
